<svg width="22" height="22" viewBox="0 0 22 22" fill="none" xmlns="http://www.w3.org/2000/svg">
<path d="M11.651 12.2835C11.5658 12.3694 11.4644 12.4376 11.3527 12.4842C11.241 12.5307 11.1212 12.5547 11.0002 12.5547C10.8792 12.5547 10.7593 12.5307 10.6476 12.4842C10.5359 12.4376 10.4345 12.3694 10.3493 12.2835L6.15099 8.076C6.06578 7.99008 5.96439 7.92189 5.85269 7.87535C5.74098 7.82881 5.62117 7.80485 5.50016 7.80485C5.37915 7.80485 5.25933 7.82881 5.14763 7.87535C5.03592 7.92189 4.93454 7.99008 4.84932 8.076C4.67859 8.24775 4.58276 8.48008 4.58276 8.72225C4.58276 8.96442 4.67859 9.19675 4.84932 9.3685L9.05683 13.576C9.57246 14.091 10.2714 14.3802 11.0002 14.3802C11.7289 14.3802 12.4279 14.091 12.9435 13.576L17.151 9.3685C17.3204 9.19776 17.4158 8.96731 17.4168 8.72684C17.4175 8.6062 17.3944 8.4866 17.3488 8.37492C17.3032 8.26324 17.236 8.16166 17.151 8.076C17.0658 7.99008 16.9644 7.92189 16.8527 7.87535C16.741 7.82881 16.6212 7.80485 16.5002 7.80485C16.3792 7.80485 16.2593 7.82881 16.1476 7.87535C16.0359 7.92189 15.9346 7.99008 15.8493 8.076L11.651 12.2835Z" fill="#FD9222"/>
</svg>
